HIERARCHY
ROOT Hips
{
	OFFSET 0.000000 0.000000 0.000000
	CHANNELS 6 Xposition Yposition Zposition Zrotation Yrotation Xrotation 
	JOINT LHipJoint
	{
		OFFSET 0.000000 0.000000 0.000000
		CHANNELS 3 Zrotation Yrotation Xrotation
		JOINT LeftUpLeg
		{
			OFFSET 1.363060 -1.794630 0.839290
			CHANNELS 3 Zrotation Yrotation Xrotation
			JOINT LeftLeg
			{
				OFFSET 2.448110 -6.726130 0.000000
				CHANNELS 3 Zrotation Yrotation Xrotation
				JOINT LeftFoot
				{
					OFFSET 2.562200 -7.039590 0.000000
					CHANNELS 3 Zrotation Yrotation Xrotation
					JOINT LeftToeBase
					{
						OFFSET 0.157640 -0.433110 2.322550
						CHANNELS 3 Zrotation Yrotation Xrotation
						End Site
						{
							OFFSET 0.000000 0.000000 0.000000
						}
					}
				}
			}
		}
	}
	JOINT RHipJoint
	{
		OFFSET 0.000000 0.000000 0.000000
		CHANNELS 3 Zrotation Yrotation Xrotation
		JOINT RightUpLeg
		{
			OFFSET -1.305520 -1.794630 0.839290
			CHANNELS 3 Zrotation Yrotation Xrotation
			JOINT RightLeg
			{
				OFFSET -2.542530 -6.985550 0.000000
				CHANNELS 3 Zrotation Yrotation Xrotation
				JOINT RightFoot
				{
					OFFSET -2.568260 -7.056230 0.000000
					CHANNELS 3 Zrotation Yrotation Xrotation
					JOINT RightToeBase
					{
						OFFSET -0.164730 -0.452590 2.363150
						CHANNELS 3 Zrotation Yrotation Xrotation
						End Site
						{
							OFFSET 0.000000 0.000000 0.000000
						}
					}
				}
			}
		}
	}
	JOINT LowerBack
	{
		OFFSET 0.000000 0.000000 0.000000
		CHANNELS 3 Zrotation Yrotation Xrotation
		JOINT Spine
		{
			OFFSET 0.028270 2.035590 -0.193380
			CHANNELS 3 Zrotation Yrotation Xrotation
			JOINT Spine1
			{
				OFFSET 0.056720 2.048850 -0.042750
				CHANNELS 3 Zrotation Yrotation Xrotation
				JOINT Neck
				{
					OFFSET 0.000000 0.000000 0.000000
					CHANNELS 3 Zrotation Yrotation Xrotation
					JOINT Neck1
					{
						OFFSET -0.054170 1.746240 0.172020
						CHANNELS 3 Zrotation Yrotation Xrotation
						JOINT Head
						{
							OFFSET 0.104070 1.761360 -0.123970
							CHANNELS 3 Zrotation Yrotation Xrotation
							End Site
							{
								OFFSET 0.000000 0.000000 0.000000
							}
						}
					}
				}
				JOINT LeftShoulder
				{
					OFFSET 0.000000 0.000000 0.000000
					CHANNELS 3 Zrotation Yrotation Xrotation
					JOINT LeftArm
					{
						OFFSET 3.362410 1.200890 -0.311210
						CHANNELS 3 Zrotation Yrotation Xrotation
						JOINT LeftForeArm
						{
							OFFSET 4.983000 -0.000000 -0.000000
							CHANNELS 3 Zrotation Yrotation Xrotation
							JOINT LeftHand
							{
								OFFSET 3.483560 -0.000000 -0.000000
								CHANNELS 3 Zrotation Yrotation Xrotation
								JOINT LeftFingerBase
								{
									OFFSET 0.000000 0.000000 0.000000
									CHANNELS 3 Zrotation Yrotation Xrotation
									JOINT LeftHandIndex1
									{
										OFFSET 0.715260 -0.000000 -0.000000
										CHANNELS 3 Zrotation Yrotation Xrotation
										End Site
										{
											OFFSET 0.000000 0.000000 0.000000
										}
									}
								}
								JOINT LThumb
								{
									OFFSET 0.000000 0.000000 0.000000
									CHANNELS 3 Zrotation Yrotation Xrotation
									End Site
									{
										OFFSET 0.000000 0.000000 0.000000
									}
								}
							}
						}
					}
				}
				JOINT RightShoulder
				{
					OFFSET 0.000000 0.000000 0.000000
					CHANNELS 3 Zrotation Yrotation Xrotation
					JOINT RightArm
					{
						OFFSET -3.136600 1.374050 -0.404650
						CHANNELS 3 Zrotation Yrotation Xrotation
						JOINT RightForeArm
						{
							OFFSET -5.241900 -0.000000 -0.000000
							CHANNELS 3 Zrotation Yrotation Xrotation
							JOINT RightHand
							{
								OFFSET -3.444170 -0.000000 -0.000000
								CHANNELS 3 Zrotation Yrotation Xrotation
								JOINT RightFingerBase
								{
									OFFSET 0.000000 0.000000 0.000000
									CHANNELS 3 Zrotation Yrotation Xrotation
									JOINT RightHandIndex1
									{
										OFFSET -0.622530 -0.000000 -0.000000
										CHANNELS 3 Zrotation Yrotation Xrotation
										End Site
										{
											OFFSET 0.000000 0.000000 0.000000
										}
									}
								}
								JOINT RThumb
								{
									OFFSET 0.000000 0.000000 0.000000
									CHANNELS 3 Zrotation Yrotation Xrotation
									End Site
									{
										OFFSET 0.000000 0.000000 0.000000
									}
								}
							}
						}
					}
				}
			}
		}
	}
}
MOTION
Frames: 9
Frame Time: 0.008333
-0.304511 16.999194 -1.269510 169.896516 88.412338 178.096983 -9.474996 1.850872 2.191651 -18.474413 5.461829 -30.768773 -2.836503 -0.293754 11.636056 1.459810 8.912232 -0.972534 1.451500 0.000000 -6.660400 10.918112 -3.207341 -1.089853 -0.827288 -11.738769 -4.106225 0.191058 -2.532949 37.874184 0.439231 10.807694 12.737110 3.483300 0.000000 -84.374400 -4.558578 -0.273499 -2.248710 -2.042568 -0.127704 -3.500801 -8.033547 -0.255605 0.379130 11.212791 -2.933074 -5.337741 -4.722248 -0.381567 0.547190 0.000000 0.000000 0.000000 -5.376803 9.898890 1.417552 -68.033255 4.235234 9.591902 -3.322436 -17.812460 -0.001994 2.958388 4.134321 0.109303 -0.048485 -0.025172 -0.000000 0.000000 0.000000 0.000000 0.000000 0.000000 0.000000 21.780109 0.962773 0.495328 67.299000 12.722916 2.191422 3.146096 24.669778 0.011566 1.625579 6.465852 0.090615 0.061565 -0.113953 0.000000 0.000000 0.000000 0.000000 0.000000 0.000000 0.000000 
-0.156096 17.014852 -1.322878 167.915051 88.016044 176.190988 -9.379960 1.898417 2.268655 -18.624261 4.743006 -30.131315 -2.815103 -0.303456 11.975508 1.551449 9.255005 -1.850297 1.342901 0.000000 -6.413500 11.114228 -3.086236 -1.101144 -1.185317 -11.729783 -5.743780 -0.130102 -2.677814 41.000727 0.226906 10.578854 15.432459 3.978399 -0.000000 -83.512300 -4.657089 -0.353712 -2.285109 -2.056986 -0.201145 -3.507497 -8.013673 -0.330002 0.365242 11.140494 -3.085048 -5.353828 -4.719086 -0.381308 0.543756 0.000000 0.000000 0.000000 -5.248767 9.506060 1.440378 -68.051318 3.689377 9.869548 -3.333766 -17.723016 -0.002297 2.916276 4.179898 0.108915 -0.049508 -0.021296 -0.000000 0.000000 0.000000 0.000000 0.000000 0.000000 0.000000 21.713667 0.729389 0.500192 67.516008 12.194710 2.144964 3.145100 24.662357 0.011473 1.699515 6.348730 0.093206 0.061283 -0.111773 0.000000 0.000000 0.000000 0.000000 0.000000 0.000000 0.000000 
-0.012572 17.028617 -1.376488 166.487477 87.624546 174.839337 -9.309433 1.928225 2.308365 -18.808385 4.180120 -29.490984 -2.805697 -0.318687 12.235210 1.624217 9.492343 -2.682649 1.216700 -0.000000 -6.269700 11.276692 -2.947218 -1.100640 -1.462028 -11.605546 -7.421576 -0.420800 -2.803999 44.124042 -0.016135 10.092850 18.090787 4.350100 -0.000000 -81.865800 -4.746299 -0.431965 -2.290050 -2.068528 -0.272314 -3.509194 -7.993638 -0.402163 0.345776 11.064524 -3.221649 -5.374781 -4.717177 -0.380985 0.538438 0.000000 0.000000 0.000000 -5.126662 9.107048 1.469348 -68.065166 3.082387 10.191449 -3.342867 -17.680205 -0.002590 2.887417 4.205193 0.108430 -0.050577 -0.017102 -0.000000 0.000000 0.000000 0.000000 0.000000 0.000000 0.000000 21.648574 0.514185 0.513516 67.700624 11.698977 2.145018 3.142462 24.652458 0.011377 1.742454 6.266042 0.094396 0.061108 -0.109960 0.000000 0.000000 0.000000 0.000000 0.000000 0.000000 0.000000 
0.126418 17.040793 -1.430417 165.547679 87.250799 173.966693 -9.264673 1.945522 2.307623 -19.015392 3.806414 -28.852796 -2.809869 -0.336586 12.420993 1.669777 9.585322 -3.446359 1.077499 0.000000 -6.197400 11.404766 -2.794703 -1.088270 -1.653293 -11.370470 -9.109961 -0.674581 -2.914263 47.198090 -0.279754 9.322956 20.623479 4.531500 -0.000000 -79.539300 -4.813543 -0.506852 -2.262154 -2.075064 -0.340819 -3.506982 -7.975410 -0.471871 0.316492 10.984128 -3.295249 -5.389312 -4.717313 -0.380698 0.534074 0.000000 0.000000 0.000000 -5.016188 8.732753 1.507329 -68.066528 2.397228 10.581585 -3.350193 -17.667408 -0.002875 2.878258 4.204901 0.108047 -0.051746 -0.012496 -0.000000 0.000000 0.000000 0.000000 0.000000 0.000000 0.000000 21.578156 0.368548 0.531502 67.865036 11.183508 2.098072 3.138005 24.656669 0.011286 1.785439 6.210041 0.095886 0.060681 -0.108460 0.000000 0.000000 0.000000 0.000000 0.000000 0.000000 0.000000 
0.261377 17.051790 -1.484148 164.754350 86.899656 173.220341 -9.235761 1.958457 2.266975 -19.250268 3.616129 -28.193145 -2.829014 -0.356621 12.517555 1.686089 9.533618 -4.117006 0.936200 0.000000 -6.165600 11.509566 -2.628556 -1.069329 -1.790956 -11.048510 -10.777087 -0.890683 -3.012983 50.182261 -0.553022 8.268533 22.933930 4.474200 -0.000000 -76.746201 -4.870977 -0.578730 -2.196542 -2.079910 -0.406159 -3.498304 -7.960256 -0.538134 0.283697 10.908261 -3.351519 -5.405258 -4.720206 -0.380459 0.528556 0.000000 0.000000 0.000000 -4.913652 8.368016 1.548370 -68.052490 1.659898 10.995713 -3.355774 -17.699568 -0.003142 2.892845 4.177901 0.107866 -0.052968 -0.007698 -0.000000 0.000000 0.000000 0.000000 0.000000 0.000000 0.000000 21.524667 0.241670 0.555435 68.000045 10.713150 2.094834 3.133292 24.623415 0.011205 1.801127 6.192606 0.096476 0.060363 -0.107195 0.000000 0.000000 0.000000 0.000000 0.000000 0.000000 0.000000 
0.392829 17.062136 -1.537769 164.110478 86.568519 172.595534 -9.222210 1.969420 2.189494 -19.499870 3.596726 -27.503135 -2.860945 -0.377435 12.530132 1.672597 9.338502 -4.686557 0.799800 0.000000 -6.148500 11.592720 -2.454779 -1.047858 -1.883293 -10.657836 -12.395260 -1.071705 -3.105589 53.036178 -0.825947 6.930211 24.927039 4.146301 -0.000000 -73.757600 -4.915547 -0.648827 -2.092601 -2.082367 -0.469858 -3.483253 -7.948760 -0.602500 0.246563 10.837291 -3.380199 -5.416894 -4.726117 -0.380328 0.523398 0.000000 0.000000 0.000000 -4.821341 8.016305 1.592465 -68.020690 0.876137 11.424079 -3.360034 -17.770478 -0.003392 2.934462 4.123883 0.107886 -0.054256 -0.002719 -0.000000 0.000000 0.000000 0.000000 0.000000 0.000000 0.000000 21.487170 0.142095 0.583188 68.111783 10.273564 2.102282 3.128872 24.549253 0.011130 1.802314 6.206434 0.096766 0.060047 -0.106067 0.000000 0.000000 0.000000 0.000000 0.000000 0.000000 0.000000 
0.521398 17.072292 -1.591687 163.769598 86.250382 172.245928 -9.226724 1.977964 2.082783 -19.739520 3.721281 -26.788477 -2.901043 -0.397637 12.477766 1.631615 9.010599 -5.161119 0.672500 0.000000 -6.130800 11.652763 -2.281528 -1.025805 -1.922732 -10.213466 -13.949626 -1.223755 -3.196475 55.726158 -1.090284 5.321728 26.518148 3.542200 0.000000 -70.838700 -4.933735 -0.719080 -1.957242 -2.079223 -0.534971 -3.462686 -7.940702 -0.668057 0.206685 10.768654 -3.376485 -5.420701 -4.734731 -0.380318 0.519709 0.000000 0.000000 0.000000 -4.745934 7.685771 1.638907 -67.970175 0.045373 11.865226 -3.363206 -17.869263 -0.003637 3.003792 4.043857 0.108209 -0.055633 0.002452 -0.000000 0.000000 0.000000 0.000000 0.000000 0.000000 0.000000 21.459918 0.071990 0.611681 68.204788 9.854206 2.098099 3.125778 24.429824 0.011067 1.797275 6.244848 0.097054 0.059707 -0.104953 0.000000 0.000000 0.000000 0.000000 0.000000 0.000000 0.000000 
0.647674 17.082702 -1.646051 163.743858 85.934133 172.183256 -9.246599 1.984445 1.955921 -19.953205 3.943914 -26.040854 -2.944522 -0.417079 12.368038 1.569456 8.582601 -5.547704 0.558400 0.000001 -6.104900 11.693326 -2.112938 -1.007252 -1.915782 -9.735096 -15.426208 -1.355359 -3.288900 58.228098 -1.339609 3.484401 27.635202 2.692499 0.000000 -68.186000 -4.922880 -0.791601 -1.795471 -2.069776 -0.603882 -3.437208 -7.935851 -0.737175 0.165110 10.702083 -3.344127 -5.413745 -4.745742 -0.380448 0.518414 0.000000 0.000000 0.000000 -4.686859 7.371426 1.686703 -67.902724 -0.823210 12.307114 -3.365767 -17.990702 -0.003887 3.099116 3.941196 0.108631 -0.057114 0.007789 -0.000000 0.000000 0.000000 0.000000 0.000000 0.000000 0.000000 21.441332 0.024416 0.639134 68.284286 9.450143 2.067976 3.124628 24.262776 0.011009 1.792199 6.297852 0.097542 0.059333 -0.103749 0.000000 0.000000 0.000000 0.000000 0.000000 0.000000 0.000000 
0.772203 17.093682 -1.701141 164.125323 85.605877 172.504898 -9.280994 1.987319 1.819955 -20.120693 4.213686 -25.261706 -2.985734 -0.435844 12.214738 1.493690 8.090949 -5.861788 0.458600 0.000000 -6.073400 11.715629 -1.953473 -0.994405 -1.858383 -9.238523 -16.821806 -1.474612 -3.384507 60.524406 -1.569172 1.478189 28.225783 1.657200 0.000000 -65.893900 -4.874166 -0.868384 -1.616742 -2.051996 -0.679297 -3.407851 -7.933537 -0.812519 0.124411 10.635880 -3.296600 -5.395700 -4.758419 -0.380705 0.519893 0.000000 0.000000 0.000000 -4.645619 7.065011 1.733911 -67.821521 -1.718455 12.737029 -3.367699 -18.133100 -0.004146 3.216540 3.820661 0.109154 -0.058694 0.013250 -0.000000 0.000000 0.000000 0.000000 0.000000 0.000000 0.000000 21.427870 -0.017903 0.664056 68.352576 9.064331 2.015206 3.126476 24.043441 0.010954 1.787167 6.357843 0.098228 0.059004 -0.102358 0.000000 0.000000 0.000000 0.000000 0.000000 0.000000 0.000000 
